<?xml version="1.0" encoding="UTF-8" standalone="no" ?>
<!DOCTYPE svg PUBLIC "-//W3C//DTD SVG 1.1//EN" "http://www.w3.org/Graphics/SVG/1.1/DTD/svg11.dtd">
<svg xmlns="http://www.w3.org/2000/svg" xmlns:xlink="http://www.w3.org/1999/xlink" version="1.1" width="1288.2165075874327" height="204.03631999999996" xml:space="preserve">
<desc>Created with Fabric.js 1.6.0-rc.1</desc>
<defs></defs>
  <g transform="translate(705.24 103.77) scale(3.51 3.51)">
   <text font-family="Cloister Black" font-size="40" font-weight="normal" style="stroke: none; stroke-width: 1; stroke-dasharray: none; stroke-linecap: butt; stroke-linejoin: miter; stroke-miterlimit: 10; fill: #006699; fill-rule: nonzero; opacity: 1;" ><tspan x="-163.74" y="8.98" style="stroke: none; stroke-width: 0; stroke-dasharray: none; stroke-linecap: butt; stroke-linejoin: miter; stroke-miterlimit: 4; fill: #006699; fill-rule: ; opacity: 1;">m</tspan><tspan x="-136.98" y="8.98" style="stroke: none; stroke-width: 0; stroke-dasharray: none; stroke-linecap: butt; stroke-linejoin: miter; stroke-miterlimit: 4; fill: #006699; fill-rule: ; opacity: 1;">a</tspan><tspan x="-120.66" y="8.98" style="stroke: none; stroke-width: 0; stroke-dasharray: none; stroke-linecap: butt; stroke-linejoin: miter; stroke-miterlimit: 4; fill: #006699; fill-rule: ; opacity: 1;">k</tspan><tspan x="-102.49" y="8.98" style="stroke: none; stroke-width: 0; stroke-dasharray: none; stroke-linecap: butt; stroke-linejoin: miter; stroke-miterlimit: 4; fill: #006699; fill-rule: ; opacity: 1;">e</tspan><tspan x="-88.66" y="8.98" style="stroke: none; stroke-width: 0; stroke-dasharray: none; stroke-linecap: butt; stroke-linejoin: miter; stroke-miterlimit: 4; fill: #006699; fill-rule: ; opacity: 1;"> </tspan><tspan x="-73.58" y="8.98" style="stroke: none; stroke-width: 0; stroke-dasharray: none; stroke-linecap: butt; stroke-linejoin: miter; stroke-miterlimit: 4; fill: #006699; fill-rule: ; opacity: 1;">y</tspan><tspan x="-56.26" y="8.98" style="stroke: none; stroke-width: 0; stroke-dasharray: none; stroke-linecap: butt; stroke-linejoin: miter; stroke-miterlimit: 4; fill: #006699; fill-rule: ; opacity: 1;">o</tspan><tspan x="-39.94" y="8.98" style="stroke: none; stroke-width: 0; stroke-dasharray: none; stroke-linecap: butt; stroke-linejoin: miter; stroke-miterlimit: 4; fill: #006699; fill-rule: ; opacity: 1;">u</tspan><tspan x="-21.78" y="8.98" style="stroke: none; stroke-width: 0; stroke-dasharray: none; stroke-linecap: butt; stroke-linejoin: miter; stroke-miterlimit: 4; fill: #006699; fill-rule: ; opacity: 1;">r</tspan><tspan x="-7.94" y="8.98" style="stroke: none; stroke-width: 0; stroke-dasharray: none; stroke-linecap: butt; stroke-linejoin: miter; stroke-miterlimit: 4; fill: #006699; fill-rule: ; opacity: 1;"> </tspan><tspan x="7.14" y="8.98" style="stroke: none; stroke-width: 0; stroke-dasharray: none; stroke-linecap: butt; stroke-linejoin: miter; stroke-miterlimit: 4; fill: #006699; fill-rule: ; opacity: 1;">o</tspan><tspan x="23.46" y="8.98" style="stroke: none; stroke-width: 0; stroke-dasharray: none; stroke-linecap: butt; stroke-linejoin: miter; stroke-miterlimit: 4; fill: #006699; fill-rule: ; opacity: 1;">w</tspan><tspan x="48.54" y="8.98" style="stroke: none; stroke-width: 0; stroke-dasharray: none; stroke-linecap: butt; stroke-linejoin: miter; stroke-miterlimit: 4; fill: #006699; fill-rule: ; opacity: 1;">n</tspan><tspan x="66.71" y="8.98" style="stroke: none; stroke-width: 0; stroke-dasharray: none; stroke-linecap: butt; stroke-linejoin: miter; stroke-miterlimit: 4; fill: #006699; fill-rule: ; opacity: 1;"> </tspan><tspan x="81.79" y="8.98" style="stroke: none; stroke-width: 0; stroke-dasharray: none; stroke-linecap: butt; stroke-linejoin: miter; stroke-miterlimit: 4; fill: #006699; fill-rule: ; opacity: 1;">b</tspan><tspan x="99.11" y="8.98" style="stroke: none; stroke-width: 0; stroke-dasharray: none; stroke-linecap: butt; stroke-linejoin: miter; stroke-miterlimit: 4; fill: #006699; fill-rule: ; opacity: 1;">r</tspan><tspan x="112.94" y="8.98" style="stroke: none; stroke-width: 0; stroke-dasharray: none; stroke-linecap: butt; stroke-linejoin: miter; stroke-miterlimit: 4; fill: #006699; fill-rule: ; opacity: 1;">a</tspan><tspan x="129.26" y="8.98" style="stroke: none; stroke-width: 0; stroke-dasharray: none; stroke-linecap: butt; stroke-linejoin: miter; stroke-miterlimit: 4; fill: #006699; fill-rule: ; opacity: 1;">n</tspan><tspan x="147.43" y="8.98" style="stroke: none; stroke-width: 0; stroke-dasharray: none; stroke-linecap: butt; stroke-linejoin: miter; stroke-miterlimit: 4; fill: #006699; fill-rule: ; opacity: 1;">d</tspan></text>
 </g>
<g style="stroke: none; stroke-width: 1; stroke-dasharray: none; stroke-linecap: butt; stroke-linejoin: miter; stroke-miterlimit: 10; fill: none; fill-rule: nonzero; opacity: 1;" transform="translate(9.999999999999993 35.78000000000003) scale(0.26 0.26)" >
  <rect x="144.46" y="381.29" rx="0" ry="0" width="33.17" height="130.71" style="stroke: none; stroke-width: 1; stroke-dasharray: none; stroke-linecap: butt; stroke-linejoin: miter; stroke-miterlimit: 10; fill: #242D3C; fill-rule: nonzero; opacity: 1;" transform=" matrix(1 0 0 1 0 0) "/>
  <rect x="308.01" y="381.29" rx="0" ry="0" width="33.19" height="130.71" style="stroke: none; stroke-width: 1; stroke-dasharray: none; stroke-linecap: butt; stroke-linejoin: miter; stroke-miterlimit: 10; fill: #242D3C; fill-rule: nonzero; opacity: 1;" transform=" matrix(1 0 0 1 0 0) "/>
  <rect x="177.63" y="453.56" rx="0" ry="0" width="130.38" height="16.98" style="stroke: none; stroke-width: 1; stroke-dasharray: none; stroke-linecap: butt; stroke-linejoin: miter; stroke-miterlimit: 10; fill: #242D3C; fill-rule: nonzero; opacity: 1;" transform=" matrix(1 0 0 1 0 0) "/>
  <circle cx="242.83300000000003" cy="223.053" r="196.723" style="stroke: none; stroke-width: 1; stroke-dasharray: none; stroke-linecap: butt; stroke-linejoin: miter; stroke-miterlimit: 10; fill: #3E4959; fill-rule: nonzero; opacity: 1;" transform="  matrix(1 0 0 1 0 0) "/>
  <path d="M 419.877 223.053 c 0 97.792 -79.281 177.065 -177.052 177.065 c -97.787 0 -177.047 -79.273 -177.047 -177.065 c 0 -97.772 79.26 -177.047 177.047 -177.047 C 340.596 46.006 419.877 125.281 419.877 223.053 z" style="stroke: none; stroke-width: 1; stroke-dasharray: none; stroke-linecap: butt; stroke-linejoin: miter; stroke-miterlimit: 10; fill: #21D8DE; fill-rule: nonzero; opacity: 1;" transform=" matrix(1 0 0 1 0 0) " stroke-linecap="round" />
  <path d="M 373.969 223.053 c 0 72.443 -58.716 131.159 -131.144 131.159 c -72.422 0 -131.156 -58.719 -131.156 -131.159 c 0 -72.425 58.734 -131.144 131.156 -131.144 C 315.252 91.909 373.969 150.628 373.969 223.053 z" style="stroke: none; stroke-width: 1; stroke-dasharray: none; stroke-linecap: butt; stroke-linejoin: miter; stroke-miterlimit: 10; fill: #FFFFFF; fill-rule: nonzero; opacity: 1;" transform=" matrix(1 0 0 1 0 0) " stroke-linecap="round" />
  <path d="M 288.733 223.053 c 0 25.359 -20.552 45.908 -45.908 45.908 c -25.347 0 -45.903 -20.547 -45.903 -45.908 c 0 -25.349 20.557 -45.903 45.903 -45.903 C 268.182 177.149 288.733 197.704 288.733 223.053 z" style="stroke: none; stroke-width: 1; stroke-dasharray: none; stroke-linecap: butt; stroke-linejoin: miter; stroke-miterlimit: 10; fill: #F15424; fill-rule: nonzero; opacity: 1;" transform=" matrix(1 0 0 1 0 0) " stroke-linecap="round" />
  <path d="M 278.422 252.058 c -1.971 2.406 -4.198 4.634 -6.605 6.605 l -32.307 -32.307 c -1.818 -1.818 -1.818 -4.787 0 -6.605 c 1.843 -1.843 4.813 -1.843 6.605 0 L 278.422 252.058 z" style="stroke: none; stroke-width: 1; stroke-dasharray: none; stroke-linecap: butt; stroke-linejoin: miter; stroke-miterlimit: 10; fill: #CD471E; fill-rule: nonzero; opacity: 1;" transform=" matrix(1 0 0 1 0 0) " stroke-linecap="round" />
  <path d="M 338.812 312.422 c -2.125 2.278 -4.324 4.48 -6.605 6.605 l -60.39 -60.365 c 2.406 -1.971 4.636 -4.198 6.605 -6.605 L 338.812 312.422 z" style="stroke: none; stroke-width: 1; stroke-dasharray: none; stroke-linecap: butt; stroke-linejoin: miter; stroke-miterlimit: 10; fill: #D9D8D7; fill-rule: nonzero; opacity: 1;" transform=" matrix(1 0 0 1 0 0) " stroke-linecap="round" />
  <path d="M 371.299 344.883 c -2.125 2.281 -4.326 4.48 -6.605 6.63 l -32.486 -32.484 c 2.281 -2.125 4.48 -4.326 6.605 -6.605 L 371.299 344.883 z" style="stroke: none; stroke-width: 1; stroke-dasharray: none; stroke-linecap: butt; stroke-linejoin: miter; stroke-miterlimit: 10; fill: #1CB7BB; fill-rule: nonzero; opacity: 1;" transform=" matrix(1 0 0 1 0 0) " stroke-linecap="round" />
  <path d="M 385.174 358.758 c -1.075 1.126 -2.15 2.253 -3.277 3.331 c -1.101 1.124 -2.199 2.199 -3.354 3.274 l -13.85 -13.85 c 2.278 -2.15 4.48 -4.349 6.605 -6.63 L 385.174 358.758 z" style="stroke: none; stroke-width: 1; stroke-dasharray: none; stroke-linecap: butt; stroke-linejoin: miter; stroke-miterlimit: 10; fill: #353E4B; fill-rule: nonzero; opacity: 1;" transform=" matrix(1 0 0 1 0 0) " stroke-linecap="round" />
  <rect x="238.9" y="127.97" rx="0" ry="0" width="7.87" height="13.12" style="stroke: none; stroke-width: 1; stroke-dasharray: none; stroke-linecap: butt; stroke-linejoin: miter; stroke-miterlimit: 10; fill: #242D3C; fill-rule: nonzero; opacity: 1;" transform=" matrix(1 0 0 1 0 0) "/>
  <rect x="202.41" y="137.33" rx="0" ry="0" width="13.11" height="7.87" style="stroke: none; stroke-width: 1; stroke-dasharray: none; stroke-linecap: butt; stroke-linejoin: miter; stroke-miterlimit: 10; fill: #242D3C; fill-rule: nonzero; opacity: 1;" transform=" matrix(-0.3831 -0.9237 0.9237 -0.3831 158.5215 388.4033) "/>
  <rect x="173.66" y="156.52" rx="0" ry="0" width="13.12" height="7.87" style="stroke: none; stroke-width: 1; stroke-dasharray: none; stroke-linecap: butt; stroke-linejoin: miter; stroke-miterlimit: 10; fill: #242D3C; fill-rule: nonzero; opacity: 1;" transform=" matrix(-0.7064 -0.7078 0.7078 -0.7064 193.9639 401.3593) "/>
  <rect x="154.5" y="185.25" rx="0" ry="0" width="13.11" height="7.87" style="stroke: none; stroke-width: 1; stroke-dasharray: none; stroke-linecap: butt; stroke-linejoin: miter; stroke-miterlimit: 10; fill: #242D3C; fill-rule: nonzero; opacity: 1;" transform=" matrix(-0.9238 -0.3829 0.3829 -0.9238 237.3911 425.6063) "/>
  <rect x="147.75" y="219.11" rx="0" ry="0" width="13.11" height="7.87" style="stroke: none; stroke-width: 1; stroke-dasharray: none; stroke-linecap: butt; stroke-linejoin: miter; stroke-miterlimit: 10; fill: #242D3C; fill-rule: nonzero; opacity: 1;" transform=" matrix(1 0 0 1 0 0) "/>
  <rect x="157.11" y="250.37" rx="0" ry="0" width="7.87" height="13.11" style="stroke: none; stroke-width: 1; stroke-dasharray: none; stroke-linecap: butt; stroke-linejoin: miter; stroke-miterlimit: 10; fill: #242D3C; fill-rule: nonzero; opacity: 1;" transform=" matrix(-0.3828 -0.9238 0.9238 -0.3828 -14.6594 504.0436) "/>
  <rect x="176.3" y="279.09" rx="0" ry="0" width="7.87" height="13.1" style="stroke: none; stroke-width: 1; stroke-dasharray: none; stroke-linecap: butt; stroke-linejoin: miter; stroke-miterlimit: 10; fill: #242D3C; fill-rule: nonzero; opacity: 1;" transform=" matrix(-0.7071 -0.7071 0.7071 -0.7071 105.695 615.069) "/>
  <rect x="205.02" y="298.29" rx="0" ry="0" width="7.87" height="13.11" style="stroke: none; stroke-width: 1; stroke-dasharray: none; stroke-linecap: butt; stroke-linejoin: miter; stroke-miterlimit: 10; fill: #242D3C; fill-rule: nonzero; opacity: 1;" transform=" matrix(-0.9239 -0.3826 0.3826 -0.9239 285.3685 666.4316) "/>
  <rect x="238.9" y="305.02" rx="0" ry="0" width="7.87" height="13.1" style="stroke: none; stroke-width: 1; stroke-dasharray: none; stroke-linecap: butt; stroke-linejoin: miter; stroke-miterlimit: 10; fill: #242D3C; fill-rule: nonzero; opacity: 1;" transform=" matrix(1 0 0 1 0 0) "/>
  <rect x="270.15" y="300.88" rx="0" ry="0" width="13.1" height="7.87" style="stroke: none; stroke-width: 1; stroke-dasharray: none; stroke-linecap: butt; stroke-linejoin: miter; stroke-miterlimit: 10; fill: #242D3C; fill-rule: nonzero; opacity: 1;" transform=" matrix(-0.3825 -0.9239 0.9239 -0.3825 100.9142 677.0782) "/>
  <rect x="298.87" y="281.7" rx="0" ry="0" width="13.1" height="7.87" style="stroke: none; stroke-width: 1; stroke-dasharray: none; stroke-linecap: butt; stroke-linejoin: miter; stroke-miterlimit: 10; fill: #242D3C; fill-rule: nonzero; opacity: 1;" transform=" matrix(-0.7071 -0.7071 0.7071 -0.7071 319.4156 703.5743) "/>
  <rect x="318.08" y="252.99" rx="0" ry="0" width="13.11" height="7.87" style="stroke: none; stroke-width: 1; stroke-dasharray: none; stroke-linecap: butt; stroke-linejoin: miter; stroke-miterlimit: 10; fill: #242D3C; fill-rule: nonzero; opacity: 1;" transform=" matrix(-0.9238 -0.383 0.383 -0.9238 526.1147 618.5901) "/>
  <rect x="324.78" y="219.11" rx="0" ry="0" width="13.1" height="7.87" style="stroke: none; stroke-width: 1; stroke-dasharray: none; stroke-linecap: butt; stroke-linejoin: miter; stroke-miterlimit: 10; fill: #242D3C; fill-rule: nonzero; opacity: 1;" transform=" matrix(1 0 0 1 0 0) "/>
  <rect x="320.66" y="182.62" rx="0" ry="0" width="7.87" height="13.1" style="stroke: none; stroke-width: 1; stroke-dasharray: none; stroke-linecap: butt; stroke-linejoin: miter; stroke-miterlimit: 10; fill: #242D3C; fill-rule: nonzero; opacity: 1;" transform=" matrix(-0.3825 -0.9239 0.9239 -0.3825 273.9835 561.44) "/>
  <rect x="301.5" y="153.9" rx="0" ry="0" width="7.87" height="13.11" style="stroke: none; stroke-width: 1; stroke-dasharray: none; stroke-linecap: butt; stroke-linejoin: miter; stroke-miterlimit: 10; fill: #242D3C; fill-rule: nonzero; opacity: 1;" transform=" matrix(-0.7076 -0.7066 0.7066 -0.7076 408.1826 489.8191) "/>
  <rect x="272.76" y="134.71" rx="0" ry="0" width="7.87" height="13.09" style="stroke: none; stroke-width: 1; stroke-dasharray: none; stroke-linecap: butt; stroke-linejoin: miter; stroke-miterlimit: 10; fill: #242D3C; fill-rule: nonzero; opacity: 1;" transform=" matrix(-0.9236 -0.3833 0.3833 -0.9236 478.1186 377.784) "/>
  <polygon points="430.77,0 390.05,40.72 390.05,75.82 425.18,75.83 465.88,35.13 430.77,35.1 " style="stroke: none; stroke-width: 1; stroke-dasharray: none; stroke-linecap: butt; stroke-linejoin: miter; stroke-miterlimit: 10; fill: #F15424; fill-rule: nonzero; opacity: 1;" transform="  matrix(1 0 0 1 0 0) "/>
  <path d="M 445.014 14.239 L 239.515 219.756 c -1.83 1.812 -1.828 4.772 0 6.61 c 1.828 1.823 4.79 1.823 6.602 -0.003 L 451.626 20.844 L 445.014 14.239 z" style="stroke: none; stroke-width: 1; stroke-dasharray: none; stroke-linecap: butt; stroke-linejoin: miter; stroke-miterlimit: 10; fill: #242D3C; fill-rule: nonzero; opacity: 1;" transform=" matrix(1 0 0 1 0 0) " stroke-linecap="round" />
</g>
</svg>